<svg width="462" height="134" viewBox="0 0 462 134" fill="none" xmlns="http://www.w3.org/2000/svg">
<path d="M95.04 68.832C95.872 68.832 96.512 69.216 96.96 69.984C97.472 70.752 97.728 71.808 97.728 73.152C97.728 75.648 97.12 77.632 95.904 79.104C89.568 86.848 82.816 90.72 75.648 90.72C69.44 90.72 64.48 88.32 60.768 83.52C57.056 78.72 55.2 71.84 55.2 62.88C55.2 60.704 55.296 58.528 55.488 56.352C51.264 57.12 46.656 57.696 41.664 58.08C38.336 58.336 36.064 58.496 34.848 58.56C33.568 65.088 31.776 73.088 29.472 82.56C28.128 88.128 25.568 90.912 21.792 90.912C17.696 90.912 15.648 89.056 15.648 85.344C15.648 84.512 15.808 83.36 16.128 81.888C18.304 73.12 20.032 65.696 21.312 59.616L16.704 59.808C14.592 59.808 13.056 59.456 12.096 58.752C11.136 57.984 10.656 56.768 10.656 55.104C10.656 52.992 11.264 51.456 12.48 50.496C13.696 49.472 15.712 48.896 18.528 48.768L23.616 48.576C25.28 39.552 26.112 32.672 26.112 27.936C26.112 24.928 25.664 22.88 24.768 21.792C23.872 20.704 22.688 20.16 21.216 20.16C16.736 20.16 11.68 23.904 6.048 31.392C5.216 32.48 4.288 33.024 3.264 33.024C2.368 33.024 1.60001 32.608 0.960007 31.776C0.320007 30.944 0 29.888 0 28.608C0 26.624 0.800001 24.512 2.4 22.272C5.216 18.368 8.76801 15.168 13.056 12.672C17.344 10.112 21.696 8.832 26.112 8.832C30.272 8.832 33.472 10.272 35.712 13.152C38.016 15.968 39.168 20.384 39.168 26.4C39.168 31.712 38.4 38.912 36.864 48L46.272 47.52C50.304 47.328 53.76 47.008 56.64 46.56C57.792 39.52 59.552 32.928 61.92 26.784C64.288 20.64 67.232 15.648 70.752 11.808C74.272 7.968 78.208 6.048 82.56 6.048C85.76 6.048 88.288 7.328 90.144 9.888C92 12.384 92.928 15.68 92.928 19.776C92.928 35.648 84.832 46.656 68.64 52.8C68.448 55.36 68.352 58.016 68.352 60.768C68.352 67.488 69.184 72.256 70.848 75.072C72.512 77.888 74.848 79.296 77.856 79.296C80.48 79.296 82.88 78.624 85.056 77.28C87.232 75.872 89.696 73.504 92.448 70.176C93.216 69.28 94.08 68.832 95.04 68.832ZM82.08 14.4C80.672 14.4 79.168 15.68 77.568 18.24C76.032 20.8 74.56 24.288 73.152 28.704C71.744 33.12 70.624 37.952 69.792 43.2C74.912 41.088 78.688 38.08 81.12 34.176C83.552 30.272 84.768 25.248 84.768 19.104C84.768 17.632 84.512 16.48 84 15.648C83.488 14.816 82.848 14.4 82.08 14.4Z" fill="#2D2D2D"/>
<path d="M107.813 92.832C104.485 92.832 101.924 92.064 100.132 90.528C98.4045 88.992 97.5405 87.264 97.5405 85.344C97.5405 83.68 98.1485 82.24 99.3645 81.024C100.581 79.808 102.373 79.2 104.741 79.2C105.573 79.2 106.533 79.296 107.621 79.488C108.773 79.616 109.637 79.712 110.213 79.776C110.149 78.112 109.765 76.544 109.061 75.072C108.421 73.6 107.589 72.192 106.565 70.848C105.541 69.44 104.581 68.224 103.685 67.2C101.701 70.976 99.7165 74.112 97.7325 76.608C95.8125 79.104 93.7005 81.472 91.3965 83.712C90.2445 84.864 89.0285 85.44 87.7485 85.44C86.7245 85.44 85.8925 85.088 85.2525 84.384C84.6125 83.616 84.2925 82.688 84.2925 81.6C84.2925 80.32 84.7405 79.136 85.6365 78.048L86.8845 76.512C90.4045 72.16 93.0605 68.576 94.8525 65.76C95.9405 63.904 97.2205 61.44 98.6925 58.368C100.164 55.232 101.605 52 103.013 48.672C104.229 45.856 106.757 44.448 110.597 44.448C112.389 44.448 113.637 44.608 114.341 44.928C115.045 45.248 115.397 45.76 115.397 46.464C115.397 46.848 115.269 47.456 115.013 48.288C114.757 49.12 114.405 49.952 113.957 50.784C112.805 53.088 112.229 55.04 112.229 56.64C112.229 57.6 112.548 58.656 113.188 59.808C113.892 60.96 114.948 62.4 116.356 64.128C118.404 66.816 119.941 69.12 120.965 71.04C122.052 72.896 122.597 74.944 122.597 77.184C122.597 77.824 122.533 78.72 122.405 79.872C125.541 78.656 129.221 75.424 133.445 70.176C134.213 69.28 135.076 68.832 136.036 68.832C136.868 68.832 137.509 69.216 137.957 69.984C138.469 70.752 138.725 71.808 138.725 73.152C138.725 75.584 138.117 77.568 136.901 79.104C133.701 83.072 130.629 85.792 127.685 87.264C124.805 88.672 121.221 89.44 116.933 89.568C114.373 91.744 111.333 92.832 107.813 92.832Z" fill="#2D2D2D"/>
<path d="M179.885 60.768C180.717 60.768 181.357 61.184 181.805 62.016C182.253 62.848 182.477 63.904 182.477 65.184C182.477 68.256 181.549 70.08 179.693 70.656C175.853 72 171.629 72.768 167.021 72.96C165.805 78.336 163.405 82.656 159.821 85.92C156.237 89.12 152.173 90.72 147.629 90.72C143.789 90.72 140.493 89.792 137.741 87.936C135.053 86.08 133.005 83.616 131.597 80.544C130.189 77.472 129.485 74.144 129.485 70.56C129.485 65.696 130.413 61.376 132.269 57.6C134.125 53.76 136.685 50.784 139.949 48.672C143.213 46.496 146.829 45.408 150.797 45.408C155.661 45.408 159.565 47.104 162.509 50.496C165.517 53.824 167.277 57.952 167.789 62.88C170.797 62.688 174.381 62.048 178.541 60.96C179.053 60.832 179.501 60.768 179.885 60.768ZM148.397 80.544C150.445 80.544 152.205 79.712 153.677 78.048C155.213 76.384 156.237 73.984 156.749 70.848C154.765 69.504 153.229 67.744 152.141 65.568C151.117 63.392 150.605 61.088 150.605 58.656C150.605 57.632 150.701 56.608 150.893 55.584H150.413C147.853 55.584 145.709 56.832 143.981 59.328C142.317 61.76 141.485 65.216 141.485 69.696C141.485 73.216 142.157 75.904 143.501 77.76C144.909 79.616 146.541 80.544 148.397 80.544Z" fill="#2D2D2D"/>
<path d="M184.03 90.72C181.15 90.72 178.782 89.408 176.926 86.784C175.134 84.096 174.238 80.768 174.238 76.8C174.238 72 174.558 67.616 175.198 63.648C175.838 59.616 176.894 55.36 178.366 50.88C179.006 48.96 179.902 47.584 181.054 46.752C182.206 45.92 184.03 45.504 186.526 45.504C187.934 45.504 188.894 45.728 189.406 46.176C189.982 46.624 190.27 47.296 190.27 48.192C190.27 48.704 189.918 50.432 189.214 53.376C188.574 55.744 188.062 57.888 187.678 59.808C186.398 66.528 185.758 71.008 185.758 73.248C185.758 74.592 185.918 75.552 186.238 76.128C186.558 76.64 187.07 76.896 187.774 76.896C188.734 76.896 189.918 75.936 191.326 74.016C192.798 72.096 194.334 69.184 195.934 65.28C197.598 61.376 199.198 56.576 200.734 50.88C201.246 48.96 202.014 47.584 203.038 46.752C204.126 45.92 205.726 45.504 207.838 45.504C209.31 45.504 210.334 45.696 210.91 46.08C211.486 46.4 211.774 47.04 211.774 48C211.774 49.6 210.974 53.984 209.374 61.152C207.582 69.344 206.686 74.4 206.686 76.32C206.686 77.536 206.942 78.496 207.454 79.2C207.966 79.84 208.638 80.16 209.47 80.16C210.75 80.16 212.254 79.392 213.982 77.856C215.774 76.256 218.142 73.696 221.086 70.176C221.854 69.28 222.718 68.832 223.678 68.832C224.51 68.832 225.15 69.216 225.598 69.984C226.11 70.752 226.366 71.808 226.366 73.152C226.366 75.712 225.758 77.696 224.542 79.104C221.79 82.496 218.814 85.28 215.614 87.456C212.478 89.632 208.894 90.72 204.862 90.72C201.79 90.72 199.518 89.536 198.046 87.168C196.638 84.8 195.934 81.472 195.934 77.184C194.846 81.536 193.214 84.896 191.038 87.264C188.862 89.568 186.526 90.72 184.03 90.72Z" fill="#2D2D2D"/>
<path d="M269.654 60.768C270.486 60.768 271.126 61.184 271.574 62.016C272.022 62.848 272.246 63.904 272.246 65.184C272.246 66.784 272.022 68.032 271.574 68.928C271.126 69.76 270.422 70.336 269.462 70.656C265.622 72 261.398 72.768 256.79 72.96C255.51 78.272 253.078 82.56 249.493 85.824C245.974 89.088 242.07 90.72 237.782 90.72C231.318 90.72 226.614 88.256 223.67 83.328C220.726 78.4 219.254 71.264 219.254 61.92C219.254 53.664 220.278 44.704 222.326 35.04C224.374 25.312 227.35 17.056 231.254 10.272C235.222 3.424 239.926 0 245.366 0C248.31 0 250.678 1.28 252.47 3.84C254.262 6.336 255.158 9.6 255.158 13.632C255.158 18.88 254.166 24.096 252.182 29.28C250.198 34.464 246.902 39.904 242.294 45.6C246.582 45.92 250.07 47.712 252.758 50.976C255.446 54.176 257.046 58.144 257.558 62.88C260.566 62.688 264.15 62.048 268.31 60.96C268.694 60.832 269.142 60.768 269.654 60.768ZM243.158 9.50401C241.878 9.50401 240.47 11.424 238.934 15.264C237.462 19.04 236.086 24.192 234.806 30.72C233.526 37.248 232.566 44.384 231.926 52.128C236.15 44.384 239.51 37.568 242.006 31.68C244.566 25.728 245.846 20.448 245.846 15.84C245.846 13.792 245.59 12.224 245.078 11.136C244.63 10.048 243.99 9.50401 243.158 9.50401ZM238.165 80.544C240.149 80.544 241.91 79.712 243.446 78.048C244.982 76.384 246.006 73.984 246.518 70.848C244.534 69.504 242.998 67.744 241.91 65.568C240.886 63.392 240.374 61.088 240.374 58.656C240.374 57.76 240.502 56.544 240.758 55.008H240.47C237.846 55.008 235.638 56.32 233.846 58.944C232.118 61.504 231.254 64.96 231.254 69.312C231.254 72.96 231.926 75.744 233.27 77.664C234.678 79.584 236.309 80.544 238.165 80.544Z" fill="#2D2D2D"/>
<path d="M313.109 69.024C313.941 69.024 314.581 69.44 315.029 70.272C315.541 71.04 315.797 72.032 315.797 73.248C315.797 74.72 315.573 75.872 315.125 76.704C314.677 77.536 313.973 78.272 313.013 78.912C307.509 82.624 303.477 85.376 300.917 87.168L294.773 91.296C292.341 104.544 289.141 114.944 285.173 122.496C281.269 130.112 276.277 133.92 270.197 133.92C266.933 133.92 264.277 132.896 262.229 130.848C260.181 128.864 259.157 126.24 259.157 122.976C259.157 118.432 260.949 113.536 264.533 108.288C268.117 103.104 274.837 96.704 284.693 89.088L285.269 85.344C284.181 87.072 282.741 88.416 280.949 89.376C279.221 90.272 277.493 90.72 275.765 90.72C271.797 90.72 268.628 89.28 266.26 86.4C263.892 83.52 262.708 79.744 262.708 75.072C262.708 69.952 263.892 65.12 266.26 60.576C268.628 55.968 271.765 52.288 275.669 49.536C279.637 46.72 283.829 45.312 288.245 45.312C289.653 45.312 290.581 45.6 291.029 46.176C291.541 46.688 291.957 47.648 292.277 49.056C293.493 48.8 294.901 48.672 296.501 48.672C298.101 48.672 299.221 48.928 299.861 49.44C300.565 49.888 300.917 50.816 300.917 52.224C300.917 52.992 300.885 53.6 300.821 54.048C300.565 56.032 299.765 61.056 298.421 69.12C298.165 70.656 297.877 72.352 297.557 74.208C297.301 76 297.013 77.92 296.693 79.968C301.621 76.128 306.357 72.736 310.901 69.792C311.733 69.28 312.469 69.024 313.109 69.024ZM279.221 81.024C280.693 81.024 282.101 80.128 283.445 78.336C284.789 76.544 285.749 73.984 286.325 70.656L289.397 54.24C286.773 54.304 284.341 55.328 282.101 57.312C279.861 59.232 278.069 61.792 276.725 64.992C275.381 68.192 274.709 71.584 274.709 75.168C274.709 77.152 275.093 78.624 275.861 79.584C276.693 80.544 277.813 81.024 279.221 81.024ZM271.253 124.608C272.853 124.608 274.645 122.688 276.629 118.848C278.677 115.008 280.628 108.896 282.484 100.512C277.556 104.736 274.005 108.544 271.829 111.936C269.653 115.328 268.565 118.304 268.565 120.864C268.565 121.952 268.757 122.848 269.141 123.552C269.589 124.256 270.293 124.608 271.253 124.608Z" fill="#2D2D2D"/>
<path d="M315.679 90.72C313.247 90.72 311.519 89.44 310.495 86.88C309.535 84.32 309.055 80.224 309.055 74.592C309.055 66.272 310.239 58.368 312.607 50.88C313.183 49.024 314.111 47.68 315.391 46.848C316.735 45.952 318.591 45.504 320.959 45.504C322.239 45.504 323.135 45.664 323.647 45.984C324.159 46.304 324.415 46.912 324.415 47.808C324.415 48.832 323.935 51.136 322.975 54.72C322.335 57.28 321.823 59.52 321.439 61.44C321.055 63.36 320.735 65.728 320.479 68.544C322.591 63.04 324.959 58.56 327.583 55.104C330.207 51.648 332.767 49.184 335.263 47.712C337.823 46.24 340.159 45.504 342.271 45.504C346.431 45.504 348.511 47.584 348.511 51.744C348.511 52.576 348.223 54.592 347.647 57.792C347.135 60.352 346.879 61.952 346.879 62.592C346.879 64.832 347.679 65.952 349.279 65.952C351.071 65.952 353.375 64.544 356.191 61.728C357.023 60.896 357.887 60.48 358.783 60.48C359.615 60.48 360.255 60.864 360.703 61.632C361.215 62.336 361.471 63.296 361.471 64.512C361.471 66.88 360.831 68.736 359.551 70.08C357.759 71.936 355.647 73.536 353.215 74.88C350.847 76.16 348.319 76.8 345.631 76.8C342.239 76.8 339.647 75.936 337.855 74.208C336.127 72.48 335.263 70.144 335.263 67.2C335.263 66.24 335.359 65.28 335.551 64.32C335.679 63.04 335.743 62.176 335.743 61.728C335.743 60.704 335.391 60.192 334.687 60.192C333.727 60.192 332.447 61.28 330.847 63.456C329.311 65.568 327.775 68.384 326.239 71.904C324.703 75.424 323.455 79.136 322.495 83.04C321.791 86.048 320.959 88.096 319.999 89.184C319.103 90.208 317.663 90.72 315.679 90.72Z" fill="#2D2D2D"/>
<path d="M364.358 90.72C360.39 90.72 357.222 89.28 354.854 86.4C352.486 83.52 351.302 79.744 351.302 75.072C351.302 69.952 352.486 65.12 354.854 60.576C357.222 55.968 360.358 52.288 364.262 49.536C368.23 46.72 372.422 45.312 376.838 45.312C378.246 45.312 379.174 45.6 379.622 46.176C380.134 46.688 380.55 47.648 380.87 49.056C382.214 48.8 383.622 48.672 385.094 48.672C388.23 48.672 389.798 49.792 389.798 52.032C389.798 53.376 389.318 56.576 388.358 61.632C386.886 68.992 386.15 74.112 386.15 76.992C386.15 77.952 386.374 78.72 386.822 79.296C387.334 79.872 387.974 80.16 388.742 80.16C389.958 80.16 391.43 79.392 393.158 77.856C394.886 76.256 397.222 73.696 400.166 70.176C400.934 69.28 401.798 68.832 402.758 68.832C403.59 68.832 404.23 69.216 404.678 69.984C405.19 70.752 405.446 71.808 405.446 73.152C405.446 75.712 404.838 77.696 403.622 79.104C400.998 82.368 398.214 85.12 395.27 87.36C392.326 89.6 389.478 90.72 386.726 90.72C384.614 90.72 382.662 90.016 380.87 88.608C379.142 87.136 377.83 85.152 376.934 82.656C373.606 88.032 369.414 90.72 364.358 90.72ZM367.814 81.024C369.222 81.024 370.566 80.192 371.846 78.528C373.126 76.864 374.054 74.656 374.63 71.904L378.182 54.24C375.494 54.304 372.998 55.328 370.694 57.312C368.454 59.232 366.662 61.792 365.318 64.992C363.974 68.192 363.302 71.584 363.302 75.168C363.302 77.152 363.686 78.624 364.454 79.584C365.286 80.544 366.406 81.024 367.814 81.024Z" fill="#2D2D2D"/>
<path d="M404.46 90.72C402.028 90.72 400.3 89.44 399.276 86.88C398.316 84.32 397.836 80.224 397.836 74.592C397.836 66.272 399.02 58.368 401.388 50.88C401.964 49.024 402.892 47.68 404.172 46.848C405.516 45.952 407.372 45.504 409.74 45.504C411.02 45.504 411.916 45.664 412.428 45.984C412.94 46.304 413.196 46.912 413.196 47.808C413.196 48.832 412.716 51.136 411.756 54.72C411.116 57.28 410.604 59.52 410.22 61.44C409.836 63.296 409.516 65.632 409.26 68.448C410.988 63.456 413.036 59.232 415.404 55.776C417.836 52.32 420.3 49.76 422.796 48.096C425.356 46.368 427.756 45.504 429.996 45.504C432.236 45.504 433.804 46.016 434.7 47.04C435.66 48.064 436.14 49.632 436.14 51.744C436.14 53.792 435.532 57.504 434.316 62.88C433.804 65.184 433.452 66.912 433.26 68.064C435.372 62.688 437.708 58.304 440.268 54.912C442.892 51.52 445.452 49.12 447.948 47.712C450.444 46.24 452.748 45.504 454.86 45.504C456.908 45.504 458.444 46.048 459.468 47.136C460.556 48.16 461.1 49.696 461.1 51.744C461.1 53.408 460.748 56.544 460.044 61.152C459.404 65.056 458.892 68.768 458.508 72.288C458.124 75.744 457.932 79.616 457.932 83.904C457.932 86.336 457.42 88.096 456.396 89.184C455.436 90.208 453.836 90.72 451.596 90.72C449.484 90.72 447.948 90.176 446.988 89.088C446.028 88 445.548 86.368 445.548 84.192C445.548 81.632 445.996 77.408 446.892 71.52C447.66 66.4 448.044 63.136 448.044 61.728C448.044 60.704 447.692 60.192 446.988 60.192C446.156 60.192 444.972 61.28 443.436 63.456C441.9 65.568 440.364 68.384 438.828 71.904C437.292 75.424 436.044 79.136 435.084 83.04C434.38 86.112 433.548 88.16 432.588 89.184C431.692 90.208 430.22 90.72 428.172 90.72C426.06 90.72 424.46 89.728 423.372 87.744C422.348 85.696 421.836 83.232 421.836 80.352C421.836 77.92 422.156 74.4 422.796 69.792C423.308 65.696 423.564 63.008 423.564 61.728C423.564 60.704 423.212 60.192 422.508 60.192C421.548 60.192 420.332 61.344 418.86 63.648C417.388 65.952 415.948 68.896 414.54 72.48C413.196 76.064 412.108 79.584 411.276 83.04C410.572 86.048 409.74 88.096 408.78 89.184C407.884 90.208 406.444 90.72 404.46 90.72Z" fill="#2D2D2D"/>
</svg>
